<svg xmlns="http://www.w3.org/2000/svg" xmlns:xlink="http://www.w3.org/1999/xlink" width="126.26" height="162.871" viewBox="0 0 126.26 162.871">
  <defs>
    <clipPath id="clip-path">
      <rect id="Rectangle_1" data-name="Rectangle 1" width="126.26" height="162.871" fill="none"/>
    </clipPath>
  </defs>
  <g id="Group_1" data-name="Group 1" clip-path="url(#clip-path)">
    <path id="Path_1" data-name="Path 1" d="M63.375,28.171a4.691,4.691,0,0,1-1.5,3.5l-29.3,29.3-.1.1a28.216,28.216,0,0,0,.1,39.8l28.9,28.9a2.116,2.116,0,0,0,3.1,0l28.9-28.9a28.336,28.336,0,0,0,1.1-38.8l-27.5,27.3a2.368,2.368,0,0,1-4-1.7v-25.1a6.779,6.779,0,0,1,1.9-4.6l27.4-27.4a2.234,2.234,0,0,1,3.2,0l16.8,16.8a47.144,47.144,0,0,1,13.8,36.5,48.845,48.845,0,0,1-14.6,31.4l-46.9,46.9a2.36,2.36,0,0,1-1.6.7,2.13,2.13,0,0,1-1.6-.7l-47.6-47.6a47.621,47.621,0,0,1,0-67.2l46.7-46.9a1.648,1.648,0,0,1,2.8,1.1Z" fill="#007b98"/>
    <path id="Path_2" data-name="Path 2" d="M63.075,162.771a2.13,2.13,0,0,0,1.6-.7l46.9-46.9a48.845,48.845,0,0,0,14.6-31.4,47.366,47.366,0,0,0-13.8-36.5l-16.8-16.8a2.234,2.234,0,0,0-3.2,0l-27.4,27.5a6.42,6.42,0,0,0-1.9,4.6v26.9a1.577,1.577,0,0,0,2.7,1.1l28.8-28.4a28.339,28.339,0,0,1-1.1,38.8l-28.9,28.9a2.928,2.928,0,0,1-1.6.7Z" fill="#00dfc3"/>
  </g>
</svg>
